# xmcd
#
# Track frame offsets:
#	150
#	29377
#	53399
#	79681
#	108538
#	161101
#	185681
#	208407
#	237241
#
# Disc length: 3725
#
# Revision: 1
# Processed by: cddbd v1.5.1PL0 Copyright (c) Steve Scherf et al.
# Submitted via: CDex 1.51
# Normalized: r0:TRMNUM
#
DISCID=770e8b09
DTITLE=Paul White - Footprints in Eternity
DYEAR=2000
DGENRE=New Age
TTITLE0=The gates of Karnos 
TTITLE1=Bryce Canyon
TTITLE2=Visitors
TTITLE3=Mysteries
TTITLE4=Footprints in eternity
TTITLE5=The hidden isles
TTITLE6=Sanctum
TTITLE7=Restful spirit
TTITLE8=Temples and Tombs
EXTD=YEAR: 2000
EXTT0=
EXTT1=
EXTT2=
EXTT3=
EXTT4=
EXTT5=
EXTT6=
EXTT7=
EXTT8=
PLAYORDER=
